<svg xmlns="http://www.w3.org/2000/svg" viewBox="0 0 28 28">
  <rect x="0.5" y="0.5" width="27" height="27" rx="5.5" fill="#a3e635" fill-opacity="0.1" stroke="#a3e635" stroke-opacity="0.3" stroke-width="1" />
  <svg x="6" y="6" width="16" height="16" viewBox="0 0 24 24" fill="none" stroke="#a3e635" stroke-width="2" stroke-linecap="round" stroke-linejoin="round">
    <path d="M2 6c.6 0 1.2-.2 1.8-.6.5-.4 1.1-.9 1.7-.9.7 0 1.3.5 1.8.9.6.4 1.2.6 1.8.6.6 0 1.2-.2 1.8-.6.5-.4 1.1-.9 1.7-.9.7 0 1.3.5 1.8.9.6.4 1.2.6 1.8.6"/>
    <path d="M2 12c.6 0 1.2-.2 1.8-.6.5-.4 1.1-.9 1.7-.9.7 0 1.3.5 1.8.9.6.4 1.2.6 1.8.6.6 0 1.2-.2 1.8-.6.5-.4 1.1-.9 1.7-.9.7 0 1.3.5 1.8.9.6.4 1.2.6 1.8.6"/>
    <path d="M2 18c.6 0 1.2-.2 1.8-.6.5-.4 1.1-.9 1.7-.9.7 0 1.3.5 1.8.9.6.4 1.2.6 1.8.6.6 0 1.2-.2 1.8-.6.5-.4 1.1-.9 1.7-.9.7 0 1.3.5 1.8.9.6.4 1.2.6 1.8.6"/>
  </svg>
</svg>
